<?xml version="1.0" encoding="utf-8"?>
<!-- Generator: Adobe Illustrator 17.1.0, SVG Export Plug-In . SVG Version: 6.00 Build 0)  -->
<!DOCTYPE svg PUBLIC "-//W3C//DTD SVG 1.1//EN" "http://www.w3.org/Graphics/SVG/1.1/DTD/svg11.dtd">
<svg version="1.1" id="Layer_1" xmlns="http://www.w3.org/2000/svg" xmlns:xlink="http://www.w3.org/1999/xlink" x="0px" y="0px"
	 viewBox="0 0 229.311 233.786" enable-background="new 0 0 229.311 233.786" xml:space="preserve">
<polygon fill="#22B790" points="0.018,195.625 34.298,187.045 34.298,225.204 0,233.786 "/>
<polygon fill="#22B790" points="195.029,148.2 229.31,139.62 229.31,177.779 195.012,186.361 "/>
<polygon fill="#51C0A6" points="214.155,169.506 13.156,219.806 13.156,181.646 214.155,131.348 "/>
<g>
	<g enable-background="new    ">
		<path fill="#FFFFFF" d="M49.712,191.55c0.183-0.849,0.423-1.64,0.722-2.371c0.299-0.731,0.648-1.381,1.049-1.95
			c0.401-0.568,0.851-1.047,1.349-1.431c0.498-0.386,1.034-0.65,1.608-0.795c0.622-0.157,1.197-0.175,1.726-0.054
			c0.529,0.121,1.006,0.359,1.432,0.715c0.425,0.355,0.797,0.824,1.117,1.404c0.319,0.58,0.575,1.254,0.768,2.018
			c0.186,0.738,0.298,1.506,0.337,2.305c0.039,0.799,0.007,1.59-0.096,2.373c-0.103,0.784-0.277,1.543-0.524,2.277
			c-0.248,0.733-0.57,1.4-0.968,1.998c-0.398,0.6-0.872,1.112-1.42,1.541c-0.549,0.429-1.167,0.728-1.855,0.902
			c-0.804,0.203-1.589,0.205-2.356,0.008c-0.767-0.199-1.443-0.611-2.028-1.236l0.118,1.618c-0.009,0.165-0.032,0.292-0.07,0.384
			c-0.038,0.091-0.144,0.158-0.315,0.201l-0.675,0.17l-2.738-21.512l1.334-0.336L49.712,191.55z M50.547,198.253
			c0.308,0.329,0.625,0.592,0.955,0.79c0.329,0.195,0.663,0.338,1,0.426c0.337,0.088,0.676,0.127,1.014,0.117
			c0.339-0.008,0.675-0.055,1.01-0.139c0.603-0.152,1.133-0.416,1.593-0.793c0.46-0.374,0.85-0.825,1.169-1.354
			c0.319-0.527,0.574-1.112,0.763-1.756c0.189-0.644,0.317-1.304,0.385-1.982c0.068-0.678,0.079-1.36,0.034-2.045
			c-0.046-0.685-0.146-1.34-0.304-1.961c-0.323-1.283-0.818-2.219-1.486-2.807c-0.667-0.59-1.47-0.768-2.407-0.531
			c-0.545,0.139-1.054,0.43-1.526,0.875c-0.474,0.444-0.893,1.008-1.26,1.69c-0.368,0.682-0.677,1.474-0.928,2.37
			c-0.252,0.898-0.429,1.868-0.533,2.911L50.547,198.253z"/>
		<path fill="#FFFFFF" d="M72.928,180.571l1.878,14.708l-0.631,0.159c-0.182,0.046-0.326,0.032-0.431-0.044
			c-0.105-0.074-0.179-0.194-0.22-0.357l-0.593-4.168c-0.202,0.855-0.462,1.638-0.781,2.349c-0.319,0.711-0.688,1.336-1.106,1.873
			c-0.419,0.539-0.881,0.985-1.386,1.342c-0.505,0.356-1.036,0.604-1.59,0.744c-1.225,0.309-2.218,0.059-2.981-0.751
			c-0.764-0.809-1.255-2.092-1.474-3.847l-1.213-9.354l1.349-0.34l1.213,9.353c0.182,1.409,0.539,2.435,1.067,3.081
			c0.528,0.645,1.267,0.848,2.214,0.609c0.526-0.133,1.025-0.401,1.499-0.807c0.472-0.403,0.899-0.921,1.28-1.551
			c0.38-0.629,0.706-1.352,0.979-2.17c0.272-0.814,0.47-1.707,0.592-2.674l-1.01-7.816L72.928,180.571z"/>
		<path fill="#FFFFFF" d="M84.904,179.412c-0.042,0.153-0.131,0.246-0.265,0.28c-0.096,0.023-0.228-0.006-0.396-0.091
			c-0.17-0.084-0.39-0.172-0.661-0.261c-0.272-0.089-0.6-0.148-0.984-0.18c-0.384-0.029-0.839,0.021-1.365,0.154
			c-0.488,0.123-0.929,0.32-1.323,0.594c-0.394,0.271-0.717,0.584-0.969,0.938c-0.252,0.354-0.426,0.733-0.521,1.139
			c-0.096,0.406-0.094,0.81,0.008,1.211c0.099,0.393,0.273,0.699,0.522,0.922c0.249,0.222,0.549,0.393,0.9,0.514
			c0.351,0.119,0.733,0.203,1.148,0.252c0.414,0.048,0.84,0.094,1.277,0.136c0.438,0.042,0.868,0.105,1.291,0.186
			c0.422,0.082,0.815,0.208,1.18,0.382c0.364,0.173,0.682,0.414,0.954,0.729c0.271,0.312,0.472,0.722,0.6,1.229
			c0.155,0.612,0.182,1.236,0.083,1.872c-0.099,0.636-0.32,1.232-0.662,1.791c-0.342,0.559-0.797,1.054-1.366,1.481
			c-0.568,0.429-1.245,0.741-2.029,0.939c-0.918,0.231-1.73,0.266-2.438,0.104c-0.708-0.162-1.351-0.445-1.931-0.85l0.221-0.573
			c0.067-0.179,0.177-0.289,0.33-0.327c0.095-0.024,0.235,0.023,0.417,0.139c0.182,0.117,0.421,0.238,0.716,0.361
			c0.296,0.124,0.659,0.212,1.09,0.267c0.431,0.055,0.942,0.007,1.535-0.144c0.574-0.145,1.069-0.367,1.487-0.672
			c0.417-0.303,0.749-0.659,0.997-1.067c0.248-0.408,0.409-0.849,0.483-1.319c0.074-0.473,0.052-0.947-0.068-1.426
			c-0.106-0.42-0.287-0.751-0.541-0.992c-0.254-0.241-0.558-0.427-0.91-0.556c-0.354-0.13-0.737-0.22-1.15-0.267
			c-0.415-0.049-0.84-0.092-1.276-0.129c-0.437-0.037-0.865-0.092-1.285-0.164c-0.42-0.072-0.811-0.19-1.173-0.353
			c-0.361-0.165-0.677-0.395-0.944-0.692c-0.269-0.299-0.466-0.697-0.592-1.195c-0.14-0.554-0.155-1.117-0.044-1.689
			c0.109-0.571,0.33-1.111,0.661-1.615c0.33-0.506,0.764-0.951,1.303-1.337c0.538-0.385,1.162-0.667,1.869-0.845
			c0.804-0.203,1.531-0.254,2.182-0.154c0.651,0.102,1.269,0.342,1.854,0.724L84.904,179.412z"/>
		<path fill="#FFFFFF" d="M90.537,180.692c0.204-0.804,0.467-1.545,0.79-2.222c0.323-0.676,0.691-1.272,1.105-1.789
			c0.414-0.517,0.865-0.942,1.355-1.279c0.49-0.338,1.002-0.573,1.538-0.709c0.622-0.157,1.183-0.171,1.683-0.043
			c0.501,0.128,0.938,0.389,1.312,0.783c0.374,0.394,0.685,0.914,0.934,1.559c0.249,0.644,0.429,1.404,0.537,2.282l1.226,9.396
			l-1.349,0.34l-1.225-9.396c-0.18-1.398-0.534-2.421-1.063-3.066c-0.529-0.645-1.266-0.849-2.213-0.609
			c-0.516,0.13-1.01,0.395-1.479,0.793c-0.469,0.398-0.894,0.904-1.272,1.519c-0.379,0.615-0.706,1.325-0.98,2.133
			c-0.275,0.807-0.476,1.685-0.604,2.632l1.017,7.967l-1.349,0.34l-2.738-21.512l1.348-0.34L90.537,180.692z"/>
		<path fill="#FFFFFF" d="M120.617,168.545l-2.526,15.818l-0.976,0.246c-0.152,0.039-0.269-0.039-0.348-0.232l-5.104-11.042
			c-0.106-0.218-0.192-0.435-0.257-0.652c-0.009,0.124-0.02,0.247-0.03,0.366c-0.01,0.119-0.024,0.242-0.043,0.369l-2.142,12.869
			c-0.026,0.221-0.115,0.35-0.268,0.389l-0.933,0.234l-6.239-13.608l0.961-0.242c0.249-0.063,0.426,0.015,0.531,0.231l4.748,10.781
			c0.154,0.409,0.285,0.809,0.394,1.198c0.026-0.221,0.052-0.44,0.078-0.661s0.055-0.446,0.088-0.678l2.042-12.601
			c0.014-0.228,0.126-0.368,0.336-0.421l0.531-0.133c0.21-0.054,0.352,0.023,0.424,0.229l4.975,10.831
			c0.091,0.2,0.174,0.398,0.248,0.593c0.075,0.195,0.147,0.391,0.217,0.587c0.018-0.208,0.036-0.421,0.053-0.64
			c0.016-0.218,0.035-0.445,0.056-0.686l1.838-12.441c0.02-0.117,0.066-0.218,0.137-0.302c0.071-0.083,0.158-0.139,0.264-0.165
			L120.617,168.545z"/>
		<path fill="#FFFFFF" d="M124.812,162.252c0.044,0.172,0.049,0.342,0.014,0.508c-0.034,0.166-0.094,0.321-0.18,0.465
			c-0.086,0.144-0.194,0.269-0.326,0.373c-0.131,0.105-0.273,0.175-0.427,0.213c-0.162,0.041-0.323,0.047-0.484,0.016
			c-0.16-0.029-0.308-0.09-0.441-0.179c-0.135-0.088-0.254-0.198-0.357-0.329c-0.104-0.131-0.179-0.283-0.222-0.455
			c-0.044-0.172-0.051-0.343-0.022-0.514c0.028-0.17,0.082-0.328,0.162-0.476c0.079-0.146,0.183-0.272,0.31-0.375
			c0.127-0.104,0.271-0.175,0.434-0.216c0.153-0.039,0.312-0.044,0.478-0.014c0.165,0.029,0.319,0.086,0.463,0.172
			c0.144,0.087,0.27,0.2,0.376,0.34C124.694,161.923,124.769,162.081,124.812,162.252z M125.007,167.438l1.863,14.712l-1.334,0.337
			l-1.864-14.713L125.007,167.438z"/>
		<path fill="#FFFFFF" d="M140.027,177.536c-0.363,0.479-0.736,0.877-1.118,1.197c-0.382,0.32-0.788,0.574-1.218,0.766
			c-0.431,0.188-0.899,0.348-1.406,0.476c-0.822,0.208-1.572,0.247-2.251,0.118c-0.679-0.129-1.282-0.396-1.812-0.802
			c-0.529-0.405-0.982-0.933-1.359-1.58c-0.377-0.648-0.669-1.383-0.877-2.205c-0.191-0.756-0.3-1.524-0.329-2.305
			c-0.029-0.782,0.019-1.544,0.147-2.288c0.128-0.744,0.331-1.451,0.609-2.122c0.279-0.671,0.63-1.277,1.052-1.821
			c0.422-0.545,0.912-1.012,1.47-1.4c0.559-0.391,1.186-0.674,1.884-0.85c0.469-0.119,0.904-0.18,1.305-0.184
			c0.4-0.005,0.78,0.037,1.138,0.124c0.357,0.089,0.696,0.219,1.015,0.394c0.318,0.174,0.625,0.382,0.92,0.623l-0.282,0.574
			c-0.06,0.126-0.146,0.204-0.262,0.233c-0.096,0.024-0.232-0.022-0.409-0.142c-0.178-0.117-0.405-0.236-0.685-0.354
			c-0.279-0.117-0.624-0.206-1.036-0.264c-0.411-0.059-0.899-0.018-1.463,0.123c-0.804,0.203-1.498,0.606-2.083,1.213
			c-0.585,0.605-1.041,1.336-1.37,2.191c-0.328,0.856-0.519,1.797-0.569,2.821c-0.053,1.026,0.052,2.055,0.312,3.088
			c0.167,0.66,0.395,1.253,0.685,1.78c0.291,0.527,0.644,0.957,1.059,1.29c0.414,0.333,0.885,0.555,1.411,0.666
			c0.526,0.111,1.11,0.086,1.751-0.076c0.507-0.128,0.948-0.297,1.321-0.509c0.374-0.211,0.696-0.438,0.967-0.678
			c0.27-0.24,0.496-0.488,0.682-0.744c0.185-0.256,0.348-0.486,0.488-0.695c0.141-0.209,0.262-0.383,0.363-0.527
			c0.102-0.142,0.205-0.227,0.31-0.253c0.106-0.026,0.218-0.003,0.338,0.068l0.395,0.297
			C140.753,176.473,140.389,177.057,140.027,177.536z"/>
		<path fill="#FFFFFF" d="M143.126,155.848l1.646,13.121l0.545-0.139c0.162-0.041,0.293-0.096,0.392-0.167
			c0.1-0.069,0.199-0.189,0.3-0.356l4.539-6.929c0.076-0.142,0.164-0.257,0.264-0.349c0.099-0.09,0.23-0.156,0.393-0.197
			l1.162-0.293l-5.02,7.628c-0.078,0.132-0.151,0.247-0.218,0.345c-0.067,0.1-0.146,0.189-0.236,0.273
			c0.144,0.045,0.273,0.107,0.39,0.184c0.116,0.078,0.229,0.174,0.34,0.288l7.038,5.886l-1.134,0.285
			c-0.134,0.034-0.254,0.041-0.36,0.022c-0.107-0.018-0.215-0.086-0.325-0.199l-6.355-5.233c-0.17-0.15-0.324-0.239-0.463-0.266
			c-0.139-0.025-0.342-0.006-0.609,0.062l-0.517,0.13l0.941,7.423l-1.334,0.336l-2.71-21.518L143.126,155.848z"/>
	</g>
</g>
<g enable-background="new    ">
	<path fill="#352E30" d="M41.746,104.176c-4.619,1.251-6.332,9.471-6.177,12.861l2.256,40.707l-17.056,4.621l-4.646-85.193
		l16.889-7.118l1.689,31.58c3.435-7.033,8.39-9.393,12.061-10.388c7.58-2.054,14.206,0.348,16.773,9.822
		c2.6,9.595,0.797,25.465,2.594,32.099c0.803,2.96,2.531,4.652,6.086,3.69c5.211-1.412,6.188-6.253,7.125-13.118l4.975-1.348
		c-1.371,21.222-9.816,26.18-16.094,27.88c-10.305,2.792-15.773-2.846-17.601-9.597c-2.183-8.055-0.8-24.067-2.854-31.647
		C46.707,105.121,44.707,103.374,41.746,104.176z"/>
	<path fill="#352E30" d="M107.096,129.061c9.356-2.535,13.63-9.287,17.723-17.642l4.027-1.091
		c-3.8,12.725-10.883,26.468-26.635,30.735c-11.134,3.017-19.953-0.442-23.579-13.826c-3.69-13.621-3.725-44.251,20.555-50.829
		c10.541-2.855,14.506,1.919,16.109,7.841c3.69,13.62-6.482,27.692-20.471,32.37c0.331,1.691,0.662,3.382,1.047,4.803
		C98.054,129.476,101.411,130.601,107.096,129.061z M101.836,82.429c-6.04,1.637-8.41,15.882-7.603,28.249
		c8.96-3.063,14.543-14.365,11.88-24.195C105.31,83.522,104.086,81.82,101.836,82.429z"/>
	<path fill="#352E30" d="M139.626,66.597l2.383,42.581c0.02,1.012,0.19,2.109,0.447,3.057c0.737,2.725,2.241,4.987,4.965,4.249
		c4.618-1.251,6.479-6.587,6.651-12.989l-2.247-40.203L169,58.639l4.162,72.61c1.034,17.9-8.285,23.858-16.102,25.976
		c-7.225,1.957-15.355-1.307-17.441-9.006c-2.984-11.015,5.323-16.952,15.677-23.317l-0.228-5.532
		c-3.52,7.184-8.561,9.693-12.589,10.785c-7.106,1.925-13.828-0.832-16.523-10.781c-0.61-2.249-0.961-4.951-1.139-7.954
		l-2.247-40.203L139.626,66.597z M151.48,147.421c2.369-0.642,4.839-3.727,4.484-11.132l-0.471-7.373
		c-6.789,4.51-11.543,9.484-9.811,15.88C146.133,146.455,148.875,148.127,151.48,147.421z"/>
</g>
<g enable-background="new    ">
	<path fill="#352E30" d="M82.423,39.594c0.404,0.081,0.761-0.016,1.027-0.088c4.094-1.109,9.154-5.345,12.257-9.051l1.452,2.185
		c-2.393,4.564-7.543,8.825-13.75,11.653c3.037,16.848-3.064,29.582-14.01,32.547c-8.276,2.242-15.299-0.059-18.047-10.203
		c-2.772-10.233-2.508-33.229,15.822-38.195C74.828,26.368,79.891,30.25,82.423,39.594z M76.095,46.562
		c-1.989,0.061-2.933-1.307-3.415-3.087c-0.675-2.492,0.048-4.407,1.457-5.553c-1.19-3.69-2.466-4.872-4.779-4.245
		c-6.318,1.712-7.424,19.491-5.061,28.212c1.592,5.873,3.109,6.895,6.491,5.979C75.149,66.686,77.517,57.446,76.095,46.562z"/>
	<path fill="#352E30" d="M107.753,26.617c-2.936,0.796-4.495,4.561-4.744,8.928l1.709,31.344L91.904,70.36L88.413,6.354L101.1,1.007
		l1.246,23.637c2.693-5.219,6.327-6.968,9.086-7.715c5.695-1.543,10.673,0.261,12.602,7.38c1.953,7.207,0.599,19.132,1.949,24.115
		c0.602,2.225,1.902,3.496,4.571,2.772c1.513-0.41,2.354-0.828,2.792-1.329c0.936,6.623-2.589,10.539-7.306,11.816
		c-6.851,1.856-10.337-2.547-11.711-7.62c-1.64-6.051-0.601-18.081-2.143-23.776C111.39,27.353,109.888,26.039,107.753,26.617z"/>
</g>
</svg>
